<svg width="331" height="237" viewBox="0 0 331 237" fill="none" xmlns="http://www.w3.org/2000/svg">
<g opacity="0.05">
<path d="M421.765 170.433L311.548 29.4816C307.595 24.8135 300.644 22.983 294.647 25.0246C288.64 27.0699 284.253 32.7605 283.968 39.0837L282.972 174.212L199.603 67.5937C195.65 62.9256 188.698 61.0952 182.701 63.1368C176.694 65.1821 172.307 70.8727 172.022 77.1958L171.027 212.397L87.6096 105.722C83.6564 101.054 76.705 99.2235 70.7084 101.265C64.7007 103.31 60.3138 109.001 60.0291 115.324L58.7112 293.999C58.6703 295.642 58.7184 297.81 59.4658 300.005C62.1052 307.758 70.6269 311.634 78.8737 308.826C85.8618 306.447 89.3147 300.34 89.6298 295.341L89.2211 155.522L174.117 266.553C174.267 266.73 174.454 266.92 174.621 267.075L174.745 267.2C175.16 267.614 175.64 268.031 176.073 268.353C177.202 269.246 178.459 269.966 180.048 270.568L180.629 270.787C181.337 271.019 182.054 271.208 182.651 271.307C182.892 271.355 183.154 271.393 183.63 271.447C184.162 271.511 184.692 271.567 185.227 271.581C185.761 271.591 186.323 271.551 186.95 271.497C187.291 271.479 187.622 271.456 187.98 271.403C188.682 271.295 189.413 271.115 190.154 270.896C190.39 270.844 190.633 270.778 190.889 270.69L191.589 270.407C192.305 270.126 192.984 269.83 193.607 269.487C193.908 269.316 194.189 269.134 194.566 268.875C195.03 268.582 195.492 268.274 195.861 267.977C196.285 267.641 196.674 267.272 197.229 266.719L197.684 266.258C198.187 265.707 198.631 265.131 199.046 264.525L199.326 264.09C200.175 262.756 200.791 261.33 201.135 259.951C201.32 259.284 201.446 258.661 201.543 257.938L201.216 117.385L285.32 227.399L286.266 228.596C289.036 231.683 293.084 233.452 297.243 233.449L297.765 233.447C298.516 233.432 299.274 233.382 300.033 233.259C300.39 233.206 300.759 233.113 301.368 232.959C301.711 232.887 302.046 232.806 302.389 232.709L302.883 232.554C302.916 232.542 302.949 232.531 302.982 232.52L303.35 232.378C303.681 232.245 304.033 232.081 304.484 231.87C304.842 231.723 305.192 231.563 305.478 231.409C306.167 231.035 306.797 230.617 307.4 230.171L307.691 229.957C311.122 227.311 313.254 223.442 313.56 219.304L313.161 79.2733L397.823 190.024L398.072 190.323C401.375 194.09 407.833 196.823 414.821 194.444C423.065 191.638 427.454 183.366 424.815 175.613C424.074 173.448 422.8 171.71 421.765 170.433Z" fill="#021B31"/>
</g>
</svg>
