<svg width="1512" height="718" viewBox="0 0 1512 718" fill="none" xmlns="http://www.w3.org/2000/svg">
<g opacity="0.32">
<path d="M-672.7 79.6409C-593.564 30.4859 -481.04 39.4822 -393.18 67.027C-307.25 93.9571 -237.612 157.074 -148.194 173.185C52.3544 209.286 217.653 2.91479 419.9 -39.8041C454.803 -47.1755 492.842 -49.113 523.657 -33.8113C554.513 -18.4937 573.104 11.3667 588.934 40.4262C697.775 240.1 767.834 487.115 985.001 583.992C1061.26 618.004 1142.38 627.632 1226.27 624.328C1340.05 619.805 1458.91 591.48 1577.62 567.954" stroke="#209FD6" stroke-miterlimit="10"/>
<path d="M1567.69 603.074C1507.29 610.198 1446.83 618.351 1388.09 623.333C1327.7 628.632 1269.38 628.056 1215.08 626.165C1136.44 623.438 1060.49 615.353 988.903 580.92C932.158 553.55 885.862 515.29 845.872 470.198C742.158 353.289 683.341 191.415 601.432 57.0579C584.609 29.4563 564.271 1.81237 532.807 -12.1389C501.442 -26.0969 463.291 -23.619 428.231 -15.8185C417.103 -13.3367 406.032 -10.3746 395.098 -6.99326C371.961 0.190046 349.175 9.24919 326.641 18.5893C268.444 42.5867 216.444 69.0902 162.156 96.1203C110.317 122.092 56.4898 148.569 2.24147 165.503C-44.0111 179.924 -90.9007 187.051 -139.919 180.353C-150.472 178.941 -160.709 176.875 -170.822 174.353C-246.528 155.245 -311.425 107.679 -388.278 85.3334C-477.47 59.4614 -589.837 49.3605 -669.624 92.2624" stroke="#209FD6" stroke-miterlimit="10"/>
<path d="M1558.46 638.237C1496.09 640.901 1433.59 644.337 1374.03 643.978C1314.48 643.619 1255.89 634.253 1204.44 628.168C1131.5 619.528 1060.18 612.846 993.284 577.994C940.248 550.237 896.73 512.317 858.378 468.123C758.912 353.382 699.329 198.147 614.35 73.4854C596.473 47.2487 574.352 21.8761 542.389 9.24053C510.467 -3.37915 472.227 -0.332346 436.954 7.89852C425.748 10.5366 414.659 13.6325 403.666 17.1319C380.392 24.5901 357.392 33.986 334.501 42.5549C275.412 64.6709 226.352 83.2781 172.57 105.539C118.788 127.8 65.8301 151.663 10.9545 168.874C-35.7044 183.519 -82.5348 192.008 -131.48 187.543C-142.018 186.596 -152.317 185.055 -162.474 183.021C-238.654 167.762 -305.365 124.513 -383.264 103.595C-473.817 79.3942 -586.051 68.1709 -666.538 104.885" stroke="#209FD6" stroke-miterlimit="10"/>
<path d="M1548.47 673.538C1484.13 671.75 1419.66 670.549 1359.23 664.785C1298.81 659.022 1242.29 640.762 1193.08 630.341C1126.26 616.174 1059.23 610.541 996.998 575.254C947.688 547.109 906.963 509.525 870.323 466.2C775.147 353.611 714.458 204.972 626.886 89.9835C607.923 65.0929 584.126 41.9844 551.611 30.6915C519.096 19.3986 480.79 22.9856 445.325 31.7121C434.061 34.4713 422.895 37.7271 411.884 41.3641C388.473 49.105 365.236 58.792 342.051 66.6667C282.031 86.9035 235.979 97.6907 182.706 115.195C131.873 131.863 74.8941 155.026 19.3733 172.571C-27.691 187.454 -74.4975 197.397 -123.367 195.082C-133.93 194.587 -144.291 193.574 -154.491 192.029C-231.093 180.651 -299.626 141.671 -378.555 122.284C-470.472 99.8075 -582.558 87.4804 -663.702 118.044" stroke="#209FD6" stroke-miterlimit="10"/>
<path d="M1538.65 708.448C1472.38 702.161 1405.99 696.328 1344.67 685.016C1283.35 673.704 1224.97 655.716 1182.05 631.904C1118.4 624.807 1058.6 607.548 1001.05 571.91C955.42 543.384 917.569 506.181 882.535 463.855C791.578 353.593 729.341 211.892 639.379 106.683C619.232 83.1466 593.83 62.3646 560.727 52.3954C527.666 42.4421 489.256 46.5504 453.647 55.6833C442.314 58.5861 431.099 61.9463 420.02 65.7256C396.534 73.7271 373.063 83.7011 349.583 90.79C288.684 109.051 245.712 111.977 192.911 124.611C140.11 137.245 84.1003 157.914 28.0224 175.721C-19.3887 190.73 -66.1365 202.063 -114.908 201.86C-125.49 201.808 -135.867 201.333 -146.125 200.31C-223.162 192.754 -293.498 158.125 -373.44 140.152C-466.68 119.332 -578.593 105.873 -660.363 130.135" stroke="#209FD6" stroke-miterlimit="10"/>
<path d="M1528.75 743.517C1460.57 732.778 1392.16 722.315 1329.99 705.55C1267.82 688.785 1210.05 664.129 1170.84 633.759C1112.23 624.052 1057.71 605.004 1004.92 568.844C962.953 540.055 927.942 503.091 894.568 461.642C807.914 353.611 743.706 218.698 651.844 123.136C630.442 100.895 603.504 82.4879 569.852 73.8591C536.24 65.2462 497.753 69.9176 461.941 79.4727C450.553 82.4905 439.305 86.0201 428.17 89.9144C404.537 98.223 380.855 108.434 357.088 114.815C295.276 131.162 255.361 126.268 203.061 134.064C153.416 141.477 93.2113 161.011 36.5051 179.119C-11.2565 194.355 -57.9677 207.118 -106.656 209.05C-117.22 209.462 -127.639 209.473 -137.956 208.975C-215.446 205.265 -287.583 174.966 -368.511 158.438C-463.089 139.29 -574.858 124.741 -657.284 142.753" stroke="#209FD6" stroke-miterlimit="10"/>
<path d="M1519.5 778.738C1449.35 763.527 1378.93 748.484 1315.92 726.222C1252.91 703.961 1195.72 672.671 1160.18 635.776C1106.6 623.455 1057.38 602.54 1009.3 565.928C970.986 536.779 938.81 500.142 907.108 459.621C824.691 353.792 758.134 225.788 664.804 139.717C642.081 118.791 613.68 102.696 579.47 95.4047C545.301 88.1294 506.707 93.3072 470.708 103.337C459.285 106.524 447.938 110.152 436.747 114.161C412.98 122.737 389.087 133.277 365.007 138.895C302.252 153.364 265.446 140.625 213.536 143.588C164.512 146.394 102.626 164.175 45.3008 182.543C-2.86022 197.987 -49.5244 212.14 -98.1578 216.241C-108.765 217.139 -119.227 217.637 -129.606 217.663C-207.564 217.795 -281.518 191.818 -363.49 176.712C-459.445 159.268 -571.096 143.529 -654.19 155.379" stroke="#209FD6" stroke-miterlimit="10"/>
<path d="M1509.62 813.78C1437.51 794.104 1365.13 774.502 1301.25 746.734C1237.37 718.965 1180.81 681.062 1148.97 637.645C1100.41 622.754 1056.54 599.898 1013.15 562.916C978.553 533.385 949.163 497.101 919.165 457.47C840.995 353.885 771.742 232.965 677.325 156.163C653.229 136.576 623.431 122.771 588.63 116.805C553.929 110.833 515.238 116.614 479.035 127.069C467.537 130.411 456.135 134.155 444.928 138.296C421.031 147.143 396.93 158.014 372.54 162.872C308.873 175.526 275.16 154.891 223.71 153.003C175.296 151.246 111.715 167.226 53.8183 185.877C5.28268 201.498 -41.3656 217.123 -89.8762 223.378C-100.506 224.725 -110.987 225.764 -121.408 226.277C-199.821 230.258 -275.556 208.573 -358.552 194.99C-455.847 179.221 -567.356 162.396 -651.108 168.001" stroke="#209FD6" stroke-miterlimit="10"/>
<path d="M1499.69 848.944C1425.65 824.821 1351.29 800.663 1286.62 767.401C1221.94 734.138 1166.02 689.578 1137.91 639.584C1094.45 622.105 1055.83 597.344 1017.24 559.902C986.398 529.969 959.828 494.002 931.508 455.246C857.699 353.769 785.385 240.09 690.379 172.329C664.827 154.08 633.683 142.588 598.377 137.998C563.131 133.385 524.335 139.716 487.959 150.655C476.403 154.126 464.964 158.055 453.679 162.365C429.644 171.514 405.284 182.736 380.581 186.859C315.991 197.667 285.385 169.246 234.36 162.519C186.563 156.224 121.337 170.45 62.7752 189.517C13.8333 205.413 -32.7539 222.547 -81.2297 230.972C-91.862 232.833 -102.367 234.33 -112.89 235.363C-191.762 243.264 -269.28 225.94 -353.29 213.831C-451.927 199.827 -563.257 181.932 -647.682 181.392" stroke="#209FD6" stroke-miterlimit="10"/>
<path d="M1490.28 884.472C1414.27 855.866 1337.92 827.173 1272.37 788.371C1206.81 749.569 1151.47 698.464 1127 642.008C1088.58 621.916 1055.27 595.263 1021.35 557.444C994.141 527.178 970.426 491.596 943.734 453.756C874.101 354.596 798.23 248.706 702.822 189.721C675.685 172.928 643.332 163.617 607.474 160.349C571.676 157.058 532.811 163.915 496.243 175.234C484.616 178.845 473.126 182.876 461.791 187.286C437.658 196.727 413.099 208.151 388.054 211.566C322.546 220.436 294.994 184.274 244.445 172.63C197.257 161.746 130.396 174.115 71.2444 193.374C21.9687 209.438 -24.6053 227.927 -72.9284 238.417C-83.5812 240.715 -94.1444 242.728 -104.684 244.293C-183.998 255.972 -263.327 242.948 -348.329 232.242C-448.311 219.862 -559.487 200.788 -644.601 194.017" stroke="#209FD6" stroke-miterlimit="10"/>
<path d="M1480.46 919.384C1402.51 886.312 1324.16 853.041 1257.75 808.711C1190.95 764.091 1136.66 706.619 1115.94 643.536C1082.56 620.823 1054.59 592.246 1025.37 554.024C1001.9 523.353 980.988 488.091 955.997 451.148C890.673 354.11 811.079 256.138 715.684 205.554C686.884 190.303 653.406 183.123 616.97 181.157C580.616 179.223 541.62 186.656 504.874 198.447C493.187 202.184 481.659 206.395 470.263 210.933C445.989 220.667 421.188 232.394 395.85 235.118C329.425 241.988 304.982 198.205 254.848 181.605C208.253 166.2 139.697 176.774 79.9329 196.407C30.2637 212.69 -16.2928 232.751 -64.5732 245.361C-75.2305 248.171 -85.8389 250.679 -96.4238 252.739C-176.217 268.324 -257.357 259.66 -343.398 250.414C-444.732 239.745 -555.775 219.613 -641.514 206.638" stroke="#209FD6" stroke-miterlimit="10"/>
<path d="M1470.35 954.899C1390.45 917.356 1310.1 879.545 1242.9 829.672C1175.38 779.54 1121.61 715.423 1104.63 645.801C1076.3 620.468 1053.67 589.975 1029.13 551.315C1009.36 520.198 991.262 485.332 967.939 449.255C906.898 354.401 831.458 245.368 728.102 222.286C694.979 214.88 663.054 203.496 626.067 202.88C589.12 202.279 550.103 210.265 513.131 222.531C501.369 226.426 489.784 230.756 478.331 235.413C453.925 245.426 428.891 257.439 403.265 259.462C335.907 264.472 314.56 212.897 264.912 191.401C218.916 171.465 148.744 180.19 88.3041 200.13C38.2382 216.643 -8.28935 238.154 -56.4926 252.918C-67.1738 256.18 -77.784 259.195 -88.4708 261.767C-168.726 281.228 -251.651 276.874 -338.715 269.166C-441.407 260.227 -552.284 238.98 -638.69 219.797" stroke="#209FD6" stroke-miterlimit="10"/>
<path d="M1461.3 989.68C1379.43 947.666 1297.05 905.277 1229.01 849.887C1160.97 794.497 1107.37 723.546 1094.09 647.473C1070.81 619.593 1053.48 587.12 1033.6 548.114C1017.54 516.637 1002.22 482.11 980.54 447.025C923.745 354.459 842.073 256.045 741.011 238.779C706.697 232.917 673.177 223.611 635.619 224.357C598.12 225.081 558.987 233.589 521.858 246.266C510.083 250.283 498.385 254.742 486.901 259.559C462.352 269.859 437.135 282.141 411.2 283.388C342.929 286.449 324.613 227.182 275.409 200.735C229.975 176.306 158.191 183.125 97.1501 203.282C46.7185 219.93 0.240515 242.924 -47.8553 259.749C-58.5767 263.49 -69.1862 267 -79.9321 270.091C-160.634 293.345 -245.366 293.288 -333.466 286.976C-437.505 279.672 -548.257 257.303 -635.35 231.886" stroke="#209FD6" stroke-miterlimit="10"/>
<path d="M1450.84 1024.49C1367.07 978.045 1282.56 931.254 1213.84 870.214C1144.69 809.277 1092.01 731.792 1082.41 649.221C1064.18 618.74 1052.25 584.351 1037 545.009C1024.68 513.123 1012.13 478.999 992.157 444.817C939.62 354.53 847.9 282.789 753.19 255.27C719.138 245.39 682.588 243.778 644.469 245.81C606.431 247.874 567.232 256.943 529.912 270.038C518.066 274.208 506.357 278.796 494.821 283.727C470.15 294.293 444.693 306.885 418.458 307.371C349.295 308.518 333.986 241.565 285.336 210.212C240.491 181.303 167.076 186.238 105.466 206.707C54.658 223.561 8.27088 247.994 -39.7685 266.933C-50.4686 271.137 -61.1758 275.156 -71.9191 278.748C-153.05 305.842 -239.557 310.114 -328.616 305.249C-433.961 299.62 -544.516 276.131 -632.255 244.511" stroke="#209FD6" stroke-miterlimit="10"/>
<path d="M1441.5 1059.88C1355.73 1008.96 1269.17 957.589 1199.57 891.07C1129.65 824.609 1091.19 738.363 1071.43 651.535C1063.54 616.874 1051.59 582.186 1041.01 542.457C1032.39 510.208 1022.65 476.47 1004.25 443.201C955.909 355.161 860.151 292.85 765.551 272.313C729.739 264.532 692.112 264.41 653.474 267.779C614.878 271.164 575.574 280.719 538.068 294.265C526.148 298.581 514.382 303.277 502.791 308.314C478.03 319.147 452.343 331.995 425.773 331.746C355.678 330.951 343.367 256.352 295.141 220.056C250.799 186.645 175.792 189.695 113.566 210.387C62.4023 227.436 16.0334 253.3 -31.907 274.301C-42.649 278.984 -53.3573 283.497 -64.2022 287.592C-145.793 318.476 -234.12 327.033 -324.233 323.559C-430.968 319.597 -541.405 294.948 -629.863 257.103" stroke="#209FD6" stroke-miterlimit="10"/>
<path d="M1432.22 1095.13C1344.51 1039.74 1255.95 983.786 1185.53 911.759C1114.89 839.783 1072.7 748.155 1060.91 653.459C1056.4 617.124 1051.52 579.548 1045.59 539.416C1040.76 506.751 1033.75 473.376 1017.06 440.987C972.995 355.124 873.503 302.551 778.835 288.675C741.284 283.192 702.622 284.412 663.412 289.169C624.262 293.904 584.834 304.018 547.16 318.018C535.182 322.453 523.341 327.307 511.714 332.519C486.819 343.631 460.879 356.805 434.039 355.816C363.025 353.122 353.731 270.788 306.026 229.517C262.222 191.595 185.654 192.774 122.77 213.829C71.2261 231.069 24.9497 258.549 -22.9829 281.541C-33.7275 286.731 -44.4605 291.697 -55.3671 296.32C-137.425 331.082 -227.542 343.951 -318.665 341.975C-426.745 339.705 -537.041 313.977 -626.171 269.923" stroke="#209FD6" stroke-miterlimit="10"/>
<path d="M1421.56 1130.32C1331.91 1070.44 1241.37 1009.9 1170.15 932.344C1098.83 854.794 1052.44 757.246 1049.09 655.223C1047.83 616.779 1050.26 576.706 1048.87 536.202C1047.87 503.124 1043.56 470.084 1028.56 438.605C988.795 354.899 885.899 312.293 790.829 304.875C751.622 301.823 711.819 304.308 672.03 310.37C632.342 316.424 592.827 327.125 554.921 341.611C542.866 346.207 531.006 351.201 519.28 356.521C494.23 367.958 468.111 381.405 440.941 379.701C369.008 375.117 362.674 285.071 315.598 238.805C272.263 196.422 194.15 195.701 130.682 217.076C78.733 234.56 32.5161 263.525 -15.3903 288.673C-26.1204 294.336 -36.9576 299.819 -47.9089 304.938C-130.445 343.605 -222.379 360.848 -314.558 360.37C-423.987 359.81 -534.122 332.971 -623.873 282.714" stroke="#209FD6" stroke-miterlimit="10"/>
</g>
</svg>
